<svg width="24" height="23" viewBox="0 0 24 23" fill="none" xmlns="http://www.w3.org/2000/svg">
<path d="M15.6011 1C15.65 1 15.6989 1 15.7505 1C15.8704 2.48096 15.3051 3.58754 14.6181 4.38888C13.944 5.18469 13.021 5.95653 11.528 5.83941C11.4284 4.37966 11.9946 3.35516 12.6807 2.55566C13.317 1.81057 14.4835 1.14754 15.6011 1Z" fill="white"/>
<path d="M20.1205 16.4146C20.1205 16.4293 20.1205 16.4422 20.1205 16.4561C19.701 17.7268 19.1025 18.8158 18.3722 19.8265C17.7054 20.744 16.8884 21.9788 15.4296 21.9788C14.169 21.9788 13.3317 21.1682 12.0398 21.1461C10.6732 21.124 9.92162 21.8239 8.67211 22C8.52918 22 8.38625 22 8.24608 22C7.32855 21.8672 6.58806 21.1406 6.04861 20.4858C4.45791 18.5512 3.22869 16.0522 3 12.8542C3 12.5406 3 12.228 3 11.9145C3.09683 9.62575 4.20893 7.76486 5.68713 6.86301C6.46726 6.38349 7.53972 5.97498 8.73389 6.15756C9.24568 6.23687 9.76854 6.41208 10.2268 6.58544C10.6612 6.75235 11.2043 7.04836 11.7189 7.03268C12.0674 7.02254 12.4142 6.84087 12.7655 6.7127C13.7946 6.34107 14.8035 5.91504 16.1332 6.11515C17.7313 6.35675 18.8655 7.0668 19.5663 8.16231C18.2145 9.02267 17.1457 10.3192 17.3283 12.5333C17.4906 14.5445 18.6599 15.7211 20.1205 16.4146Z" fill="white"/>
</svg>
