<svg width="24" height="24" viewBox="0 0 24 24" fill="none" xmlns="http://www.w3.org/2000/svg">
<path fill-rule="evenodd" clip-rule="evenodd" d="M4.18241 1.53014L16.2094 8.1563L13.3684 10.8717L3.94053 1.85685C3.77085 1.69373 3.96772 1.41342 4.17491 1.52592L4.18241 1.53014ZM2.25024 21.2103V2.78872C2.25037 2.74875 2.26229 2.70971 2.28451 2.67649C2.30673 2.64327 2.33827 2.61735 2.37516 2.60198C2.41206 2.58661 2.45267 2.58248 2.4919 2.5901C2.53114 2.59772 2.56725 2.61675 2.59571 2.64481L12.1876 12L2.59571 21.3543C2.56725 21.3823 2.53114 21.4013 2.4919 21.409C2.45267 21.4166 2.41206 21.4124 2.37516 21.3971C2.33827 21.3817 2.30673 21.3558 2.28451 21.3226C2.26229 21.2894 2.25037 21.2503 2.25024 21.2103ZM3.94147 22.1431C3.77085 22.3063 3.96772 22.5866 4.17584 22.4741L4.18334 22.4699L16.2094 15.8437L13.3684 13.1273L3.94147 22.1431ZM17.7061 8.97848L21.0647 10.8281C21.9783 11.333 21.9783 12.667 21.0647 13.1719L17.7061 15.0201L14.5482 12L17.7061 8.97848Z" fill="white"/>
</svg>
