<svg width="34" height="34" viewBox="0 0 34 34" fill="none" xmlns="http://www.w3.org/2000/svg">
<path d="M18.275 8.07505C18.275 7.37089 17.7042 6.80005 17 6.80005C16.2958 6.80005 15.725 7.37089 15.725 8.07505V15.725H8.07499C7.37082 15.725 6.79999 16.2959 6.79999 17C6.79999 17.7042 7.37082 18.275 8.07499 18.275L15.725 18.2751V25.9251C15.725 26.6292 16.2958 27.2001 17 27.2001C17.7042 27.2001 18.275 26.6292 18.275 25.9251V18.2751L25.925 18.2751C26.6292 18.2751 27.2 17.7042 27.2 17C27.2 16.2959 26.6292 15.7251 25.925 15.7251H18.275V8.07505Z" fill="#181A20"/>
</svg>
